<?xml version="1.0" encoding="utf-8"?>
<!-- Svg Vector Icons : http://www.onlinewebfonts.com/icon -->
<!DOCTYPE svg PUBLIC "-//W3C//DTD SVG 1.1//EN" "http://www.w3.org/Graphics/SVG/1.1/DTD/svg11.dtd">
<svg version="1.1" xmlns="http://www.w3.org/2000/svg" xmlns:xlink="http://www.w3.org/1999/xlink" x="0px" y="0px" viewBox="0 0 1000 1000" enable-background="new 0 0 1000 1000" xml:space="preserve">
<metadata> Svg Vector Icons : http://www.onlinewebfonts.com/icon </metadata>
<g><g><path d="M343.1,990h313.8c15.6,0,28.3-12.7,28.3-28.3V685.2h276.5c15.6,0,28.3-12.7,28.3-28.3V343.1c0-15.6-12.7-28.3-28.3-28.3H685.2V38.3c0-15.6-12.7-28.3-28.3-28.3H343.1c-15.6,0-28.3,12.7-28.3,28.3v276.5H38.3c-15.6,0-28.3,12.7-28.3,28.3v313.8c0,15.6,12.7,28.3,28.3,28.3h276.5v276.5C314.8,977.3,327.5,990,343.1,990z M66.6,628.6V371.4h276.5c15.6,0,28.3-12.7,28.3-28.3V66.6h257.2v276.5c0,15.6,12.7,28.3,28.3,28.3h276.5v257.2H656.9c-15.6,0-28.3,12.7-28.3,28.3v276.5H371.4V656.9c0-15.6-12.7-28.3-28.3-28.3H66.6z"/></g><g></g><g></g><g></g><g></g><g></g><g></g><g></g><g></g><g></g><g></g><g></g><g></g><g></g><g></g><g></g></g>
</svg>